<svg id="instagram" xmlns="http://www.w3.org/2000/svg" width="24" height="24" viewBox="0 0 24 24">
  <path id="Icon_awesome-instagram" data-name="Icon awesome-instagram" d="M9,6.621a4.614,4.614,0,1,0,4.614,4.614A4.606,4.606,0,0,0,9,6.621Zm0,7.613a3,3,0,1,1,3-3A3,3,0,0,1,9,14.234Zm5.878-7.8A1.076,1.076,0,1,1,13.8,5.357,1.074,1.074,0,0,1,14.874,6.433ZM17.93,7.525a5.325,5.325,0,0,0-1.454-3.77A5.36,5.36,0,0,0,12.706,2.3c-1.486-.084-5.939-.084-7.424,0a5.353,5.353,0,0,0-3.77,1.45A5.343,5.343,0,0,0,.058,7.521c-.084,1.486-.084,5.939,0,7.424a5.325,5.325,0,0,0,1.454,3.77,5.367,5.367,0,0,0,3.77,1.454c1.486.084,5.939.084,7.424,0a5.325,5.325,0,0,0,3.77-1.454,5.36,5.36,0,0,0,1.454-3.77c.084-1.486.084-5.935,0-7.42Zm-1.919,9.014A3.037,3.037,0,0,1,14.3,18.25c-1.185.47-4,.361-5.3.361s-4.124.1-5.3-.361a3.037,3.037,0,0,1-1.711-1.711c-.47-1.185-.361-4-.361-5.3s-.1-4.124.361-5.3A3.037,3.037,0,0,1,3.692,4.22c1.185-.47,4-.361,5.3-.361s4.124-.1,5.3.361a3.037,3.037,0,0,1,1.711,1.711c.47,1.185.361,4,.361,5.3S16.481,15.359,16.011,16.539Z" transform="translate(3.005 0.762)" fill="#fff"/>
</svg>
