<svg id="linkedin" xmlns="http://www.w3.org/2000/svg" width="16.744" height="16" viewBox="0 0 16.744 16">
  <path id="Icon_zocial-linkedin" data-name="Icon zocial-linkedin" d="M-.18,2.075A1.74,1.74,0,0,1,.386.741,2.075,2.075,0,0,1,1.856.216,2.013,2.013,0,0,1,3.295.733a1.823,1.823,0,0,1,.566,1.39,1.7,1.7,0,0,1-.549,1.293,2.079,2.079,0,0,1-1.487.533H1.808A1.978,1.978,0,0,1,.369,3.416,1.791,1.791,0,0,1-.18,2.075ZM.03,16.216V5.42H3.618v10.8H.03Zm5.576,0H9.194V10.188a2.327,2.327,0,0,1,.129-.873,2.344,2.344,0,0,1,.687-.929,1.756,1.756,0,0,1,1.156-.38q1.81,0,1.81,2.44v5.77h3.588v-6.19A5.2,5.2,0,0,0,15.432,6.4a3.859,3.859,0,0,0-2.99-1.236A3.668,3.668,0,0,0,9.194,6.955v.032H9.178l.016-.032V5.42H5.606q.032.517.032,3.216t-.032,7.58Z" transform="translate(0.18 -0.216)" fill="#fff"/>
</svg>
