<svg id="twitter" xmlns="http://www.w3.org/2000/svg" width="17.205" height="14" viewBox="0 0 17.205 14">
  <path id="Icon_ionic-logo-twitter" data-name="Icon ionic-logo-twitter" d="M18.618,6.159a7.136,7.136,0,0,1-2.027.558,3.542,3.542,0,0,0,1.553-1.954,7.014,7.014,0,0,1-2.242.857A3.529,3.529,0,0,0,9.8,8.033a3.456,3.456,0,0,0,.091.806A10,10,0,0,1,2.609,5.145a3.537,3.537,0,0,0,1.1,4.718,3.448,3.448,0,0,1-1.6-.441v.044a3.533,3.533,0,0,0,2.833,3.464,3.553,3.553,0,0,1-.93.124,3.33,3.33,0,0,1-.664-.066,3.535,3.535,0,0,0,3.3,2.454,7.077,7.077,0,0,1-4.386,1.513,7.155,7.155,0,0,1-.842-.051,9.866,9.866,0,0,0,5.4,1.6A9.983,9.983,0,0,0,16.868,8.445c0-.153,0-.306-.011-.456A7.185,7.185,0,0,0,18.618,6.159Z" transform="translate(-1.413 -4.5)" fill="#fff"/>
</svg>
